<mxfile host="app.diagrams.net" agent="Mozilla/5.0 (Windows NT 10.0; Win64; x64) AppleWebKit/537.36 (KHTML, like Gecko) Chrome/136.0.0.0 Safari/537.36" version="27.0.6">
  <diagram name="Page-1" id="vwzElEV9mMVuuLXDs1yB">
    <mxGraphModel dx="1426" dy="743" grid="1" gridSize="10" guides="1" tooltips="1" connect="1" arrows="1" fold="1" page="1" pageScale="1" pageWidth="850" pageHeight="1100" math="0" shadow="0">
      <root>
        <mxCell id="0" />
        <mxCell id="1" parent="0" />
        <mxCell id="18WC10lnvHGb9KURgrPZ-2" value="&lt;h1 style=&quot;margin-top: 0px;&quot;&gt;1 - Faça um pseudocódigo e um diagrama de blocos que leia um número. se positivo armazene-o em uma variável chamada POSITIVO, se for, armazene-o em uma variável chamada NEGATIVO. No final, mostrar o resultado.&lt;/h1&gt;" style="text;html=1;whiteSpace=wrap;overflow=hidden;rounded=0;" vertex="1" parent="1">
          <mxGeometry x="160" y="30" width="550" height="230" as="geometry" />
        </mxCell>
        <mxCell id="18WC10lnvHGb9KURgrPZ-12" style="edgeStyle=orthogonalEdgeStyle;rounded=0;orthogonalLoop=1;jettySize=auto;html=1;" edge="1" parent="1" source="18WC10lnvHGb9KURgrPZ-5" target="18WC10lnvHGb9KURgrPZ-11">
          <mxGeometry relative="1" as="geometry" />
        </mxCell>
        <mxCell id="18WC10lnvHGb9KURgrPZ-14" style="edgeStyle=orthogonalEdgeStyle;rounded=0;orthogonalLoop=1;jettySize=auto;html=1;" edge="1" parent="1" source="18WC10lnvHGb9KURgrPZ-5" target="18WC10lnvHGb9KURgrPZ-13">
          <mxGeometry relative="1" as="geometry" />
        </mxCell>
        <mxCell id="18WC10lnvHGb9KURgrPZ-5" value="num &amp;lt; 0" style="strokeWidth=2;html=1;shape=mxgraph.flowchart.decision;whiteSpace=wrap;" vertex="1" parent="1">
          <mxGeometry x="195" y="420" width="100" height="100" as="geometry" />
        </mxCell>
        <mxCell id="18WC10lnvHGb9KURgrPZ-6" value="Positivo" style="strokeWidth=2;html=1;shape=mxgraph.flowchart.display;whiteSpace=wrap;" vertex="1" parent="1">
          <mxGeometry x="55" y="660" width="100" height="60" as="geometry" />
        </mxCell>
        <mxCell id="18WC10lnvHGb9KURgrPZ-9" value="" style="edgeStyle=orthogonalEdgeStyle;rounded=0;orthogonalLoop=1;jettySize=auto;html=1;" edge="1" parent="1" source="18WC10lnvHGb9KURgrPZ-7" target="18WC10lnvHGb9KURgrPZ-8">
          <mxGeometry relative="1" as="geometry" />
        </mxCell>
        <mxCell id="18WC10lnvHGb9KURgrPZ-7" value="Início" style="strokeWidth=2;html=1;shape=mxgraph.flowchart.terminator;whiteSpace=wrap;" vertex="1" parent="1">
          <mxGeometry x="195" y="230" width="100" height="60" as="geometry" />
        </mxCell>
        <mxCell id="18WC10lnvHGb9KURgrPZ-10" value="" style="edgeStyle=orthogonalEdgeStyle;rounded=0;orthogonalLoop=1;jettySize=auto;html=1;" edge="1" parent="1" source="18WC10lnvHGb9KURgrPZ-8" target="18WC10lnvHGb9KURgrPZ-5">
          <mxGeometry relative="1" as="geometry" />
        </mxCell>
        <mxCell id="18WC10lnvHGb9KURgrPZ-8" value="num" style="shape=manualInput;whiteSpace=wrap;html=1;" vertex="1" parent="1">
          <mxGeometry x="205" y="320" width="80" height="80" as="geometry" />
        </mxCell>
        <mxCell id="18WC10lnvHGb9KURgrPZ-17" value="" style="edgeStyle=orthogonalEdgeStyle;rounded=0;orthogonalLoop=1;jettySize=auto;html=1;" edge="1" parent="1" source="18WC10lnvHGb9KURgrPZ-11" target="18WC10lnvHGb9KURgrPZ-16">
          <mxGeometry relative="1" as="geometry" />
        </mxCell>
        <mxCell id="18WC10lnvHGb9KURgrPZ-11" value="negativo &amp;lt;- num" style="rounded=1;whiteSpace=wrap;html=1;absoluteArcSize=1;arcSize=14;strokeWidth=2;" vertex="1" parent="1">
          <mxGeometry x="305" y="560" width="170" height="70" as="geometry" />
        </mxCell>
        <mxCell id="18WC10lnvHGb9KURgrPZ-15" style="edgeStyle=orthogonalEdgeStyle;rounded=0;orthogonalLoop=1;jettySize=auto;html=1;" edge="1" parent="1" source="18WC10lnvHGb9KURgrPZ-13" target="18WC10lnvHGb9KURgrPZ-6">
          <mxGeometry relative="1" as="geometry" />
        </mxCell>
        <mxCell id="18WC10lnvHGb9KURgrPZ-13" value="positivo &amp;lt;- num" style="rounded=1;whiteSpace=wrap;html=1;absoluteArcSize=1;arcSize=14;strokeWidth=2;" vertex="1" parent="1">
          <mxGeometry x="20" y="560" width="170" height="70" as="geometry" />
        </mxCell>
        <mxCell id="18WC10lnvHGb9KURgrPZ-16" value="negativo" style="strokeWidth=2;html=1;shape=mxgraph.flowchart.display;whiteSpace=wrap;" vertex="1" parent="1">
          <mxGeometry x="340" y="660" width="100" height="60" as="geometry" />
        </mxCell>
        <mxCell id="18WC10lnvHGb9KURgrPZ-18" value="Início" style="strokeWidth=2;html=1;shape=mxgraph.flowchart.terminator;whiteSpace=wrap;" vertex="1" parent="1">
          <mxGeometry x="205" y="740" width="100" height="60" as="geometry" />
        </mxCell>
        <mxCell id="18WC10lnvHGb9KURgrPZ-19" style="edgeStyle=orthogonalEdgeStyle;rounded=0;orthogonalLoop=1;jettySize=auto;html=1;entryX=0.5;entryY=0;entryDx=0;entryDy=0;entryPerimeter=0;" edge="1" parent="1" source="18WC10lnvHGb9KURgrPZ-16" target="18WC10lnvHGb9KURgrPZ-18">
          <mxGeometry relative="1" as="geometry" />
        </mxCell>
        <mxCell id="18WC10lnvHGb9KURgrPZ-21" style="edgeStyle=orthogonalEdgeStyle;rounded=0;orthogonalLoop=1;jettySize=auto;html=1;entryX=0.5;entryY=0;entryDx=0;entryDy=0;entryPerimeter=0;" edge="1" parent="1" source="18WC10lnvHGb9KURgrPZ-6" target="18WC10lnvHGb9KURgrPZ-18">
          <mxGeometry relative="1" as="geometry" />
        </mxCell>
      </root>
    </mxGraphModel>
  </diagram>
</mxfile>
